<svg xmlns="http://www.w3.org/2000/svg" xmlns:xlink="http://www.w3.org/1999/xlink" version="1.1" width="172" height="92" viewBox="0 0 172 92">
<defs>
<radialGradient id="rg1" gradientUnits="userSpaceOnUse" cx="101.4" cy="21.4" r="14.976"><stop offset="0" stop-color="#9a3cff" stop-opacity="0.627"/><stop offset="0.55" stop-color="#7700ff" stop-opacity="0.55"/><stop offset="1" stop-color="#7700ff" stop-opacity="0.231"/></radialGradient>
<linearGradient id="lg2" gradientUnits="userSpaceOnUse" x1="95" y1="15" x2="113" y2="33"><stop offset="0" stop-color="#ffffff" stop-opacity="0.3"/><stop offset="0.34" stop-color="#ffffff" stop-opacity="0.09"/><stop offset="1" stop-color="#000000" stop-opacity="0.22"/></linearGradient>
<radialGradient id="rg3" gradientUnits="userSpaceOnUse" cx="141.4" cy="21.4" r="14.976"><stop offset="0" stop-color="#9a3cff" stop-opacity="0.627"/><stop offset="0.55" stop-color="#7700ff" stop-opacity="0.55"/><stop offset="1" stop-color="#7700ff" stop-opacity="0.231"/></radialGradient>
<linearGradient id="lg4" gradientUnits="userSpaceOnUse" x1="135" y1="15" x2="153" y2="33"><stop offset="0" stop-color="#ffffff" stop-opacity="0.3"/><stop offset="0.34" stop-color="#ffffff" stop-opacity="0.09"/><stop offset="1" stop-color="#000000" stop-opacity="0.22"/></linearGradient>
<radialGradient id="rg5" gradientUnits="userSpaceOnUse" cx="21.4" cy="61.4" r="12.948"><stop offset="0" stop-color="#9a3cff" stop-opacity="0.775"/><stop offset="0.55" stop-color="#7700ff" stop-opacity="0.68"/><stop offset="1" stop-color="#7700ff" stop-opacity="0.286"/></radialGradient>
<linearGradient id="lg6" gradientUnits="userSpaceOnUse" x1="15" y1="55" x2="33" y2="73"><stop offset="0" stop-color="#ffffff" stop-opacity="0.16"/><stop offset="0.34" stop-color="#ffffff" stop-opacity="0.048"/><stop offset="1" stop-color="#000000" stop-opacity="0.22"/></linearGradient>
<radialGradient id="rg7" gradientUnits="userSpaceOnUse" cx="61.4" cy="61.4" r="12.948"><stop offset="0" stop-color="#9a3cff" stop-opacity="0.775"/><stop offset="0.55" stop-color="#7700ff" stop-opacity="0.68"/><stop offset="1" stop-color="#7700ff" stop-opacity="0.286"/></radialGradient>
<linearGradient id="lg8" gradientUnits="userSpaceOnUse" x1="55" y1="55" x2="73" y2="73"><stop offset="0" stop-color="#ffffff" stop-opacity="0.16"/><stop offset="0.34" stop-color="#ffffff" stop-opacity="0.048"/><stop offset="1" stop-color="#000000" stop-opacity="0.22"/></linearGradient>
</defs>
<g id="active-center">
<rect x="12" y="12" width="24" height="24" fill="#7700ff" fill-opacity="0.004"/>
<path d="M 20.4,20.4 L 27.6,20.4" fill="none" stroke="#efeaff" stroke-width="1.5" stroke-linecap="round" stroke-linejoin="round" stroke-opacity="0.7"/>
<path d="M 20.4,23.8 L 24,27.4 L 27.6,23.8" fill="none" stroke="#efeaff" stroke-width="1.5" stroke-linecap="round" stroke-linejoin="round" stroke-opacity="0.7"/>
</g>
<g id="inactive-center">
<rect x="52" y="12" width="24" height="24" fill="#7700ff" fill-opacity="0.004"/>
<path d="M 60.4,20.4 L 67.6,20.4" fill="none" stroke="#9a8fc0" stroke-width="1.5" stroke-linecap="round" stroke-linejoin="round" stroke-opacity="0.55"/>
<path d="M 60.4,23.8 L 64,27.4 L 67.6,23.8" fill="none" stroke="#9a8fc0" stroke-width="1.5" stroke-linecap="round" stroke-linejoin="round" stroke-opacity="0.55"/>
</g>
<g id="hover-center">
<rect x="92" y="12" width="24" height="24" fill="#7700ff" fill-opacity="0.004"/>
<rect x="94.4" y="14.4" width="19.2" height="19.2" rx="4" ry="4" fill="url(#rg1)"/>
<rect x="94.9" y="14.9" width="18.2" height="18.2" rx="3.5" ry="3.5" fill="none" stroke="url(#lg2)" stroke-width="1"/>
<path d="M 100.4,20.4 L 107.6,20.4" fill="none" stroke="#efeaff" stroke-width="1.5" stroke-linecap="round" stroke-linejoin="round" stroke-opacity="1"/>
<path d="M 100.4,23.8 L 104,27.4 L 107.6,23.8" fill="none" stroke="#efeaff" stroke-width="1.5" stroke-linecap="round" stroke-linejoin="round" stroke-opacity="1"/>
</g>
<g id="hover-inactive-center">
<rect x="132" y="12" width="24" height="24" fill="#7700ff" fill-opacity="0.004"/>
<rect x="134.4" y="14.4" width="19.2" height="19.2" rx="4" ry="4" fill="url(#rg3)"/>
<rect x="134.9" y="14.9" width="18.2" height="18.2" rx="3.5" ry="3.5" fill="none" stroke="url(#lg4)" stroke-width="1"/>
<path d="M 140.4,20.4 L 147.6,20.4" fill="none" stroke="#efeaff" stroke-width="1.5" stroke-linecap="round" stroke-linejoin="round" stroke-opacity="1"/>
<path d="M 140.4,23.8 L 144,27.4 L 147.6,23.8" fill="none" stroke="#efeaff" stroke-width="1.5" stroke-linecap="round" stroke-linejoin="round" stroke-opacity="1"/>
</g>
<g id="pressed-center">
<rect x="12" y="52" width="24" height="24" fill="#7700ff" fill-opacity="0.004"/>
<rect x="15.7" y="55.7" width="16.6" height="16.6" rx="4" ry="4" fill="url(#rg5)"/>
<rect x="16.2" y="56.2" width="15.6" height="15.6" rx="3.5" ry="3.5" fill="none" stroke="url(#lg6)" stroke-width="1"/>
<path d="M 20.832,60.832 L 27.168,60.832" fill="none" stroke="#efeaff" stroke-width="1.5" stroke-linecap="round" stroke-linejoin="round" stroke-opacity="1"/>
<path d="M 20.832,63.824 L 24,66.992 L 27.168,63.824" fill="none" stroke="#efeaff" stroke-width="1.5" stroke-linecap="round" stroke-linejoin="round" stroke-opacity="1"/>
</g>
<g id="pressed-inactive-center">
<rect x="52" y="52" width="24" height="24" fill="#7700ff" fill-opacity="0.004"/>
<rect x="55.7" y="55.7" width="16.6" height="16.6" rx="4" ry="4" fill="url(#rg7)"/>
<rect x="56.2" y="56.2" width="15.6" height="15.6" rx="3.5" ry="3.5" fill="none" stroke="url(#lg8)" stroke-width="1"/>
<path d="M 60.832,60.832 L 67.168,60.832" fill="none" stroke="#efeaff" stroke-width="1.5" stroke-linecap="round" stroke-linejoin="round" stroke-opacity="1"/>
<path d="M 60.832,63.824 L 64,66.992 L 67.168,63.824" fill="none" stroke="#efeaff" stroke-width="1.5" stroke-linecap="round" stroke-linejoin="round" stroke-opacity="1"/>
</g>
<g id="deactivated-center">
<rect x="92" y="52" width="24" height="24" fill="#7700ff" fill-opacity="0.004"/>
<path d="M 100.4,60.4 L 107.6,60.4" fill="none" stroke="#efeaff" stroke-width="1.5" stroke-linecap="round" stroke-linejoin="round" stroke-opacity="0.35"/>
<path d="M 100.4,63.8 L 104,67.4 L 107.6,63.8" fill="none" stroke="#efeaff" stroke-width="1.5" stroke-linecap="round" stroke-linejoin="round" stroke-opacity="0.35"/>
</g>
<g id="deactivated-inactive-center">
<rect x="132" y="52" width="24" height="24" fill="#7700ff" fill-opacity="0.004"/>
<path d="M 140.4,60.4 L 147.6,60.4" fill="none" stroke="#9a8fc0" stroke-width="1.5" stroke-linecap="round" stroke-linejoin="round" stroke-opacity="0.28"/>
<path d="M 140.4,63.8 L 144,67.4 L 147.6,63.8" fill="none" stroke="#9a8fc0" stroke-width="1.5" stroke-linecap="round" stroke-linejoin="round" stroke-opacity="0.28"/>
</g>
</svg>
