<svg xmlns="http://www.w3.org/2000/svg" xmlns:xlink="http://www.w3.org/1999/xlink" width="32" height="32" viewBox="0 0 32 32">
  <defs>
    <linearGradient id="body" x1="0" y1="0" x2="0" y2="1"><stop offset="0" stop-color="#2a1f45"/><stop offset="1" stop-color="#171028"/></linearGradient>
    <linearGradient id="edge" x1="0" y1="0" x2=".78" y2="1"><stop offset="0" stop-color="#ffffff"/><stop offset=".38" stop-color="#efeaff" stop-opacity=".92"/><stop offset="1" stop-color="#c6bbec" stop-opacity=".76"/></linearGradient>
    <linearGradient id="sheen" x1="0" y1="0" x2=".55" y2="1"><stop offset="0" stop-color="#ffffff" stop-opacity=".17"/><stop offset=".36" stop-color="#ffffff" stop-opacity=".05"/><stop offset=".7" stop-color="#ffffff" stop-opacity="0"/></linearGradient>
    <linearGradient id="live" x1="0" y1="0" x2="1" y2="1"><stop offset="0" stop-color="#7700ff"/><stop offset=".55" stop-color="#9a3cff"/><stop offset="1" stop-color="#00e5ff"/></linearGradient>
    <filter id="drop" x="-45%" y="-45%" width="190%" height="190%"><feDropShadow dx="0" dy=".7" stdDeviation=".5" flood-color="#04020a" flood-opacity=".4"/></filter>
    <path id="s0" d="M15.7 5.6H16.3a1.2 1.2 0 0 1 1.2 1.2V25.2a1.2 1.2 0 0 1 -1.2 1.2H15.7a1.2 1.2 0 0 1 -1.2 -1.2V6.8a1.2 1.2 0 0 1 1.2 -1.2Z"/>
    <path id="s1" d="M6.4 16 12.4 11.4 12.4 20.6Z"/>
    <path id="s2" d="M25.6 16 19.6 11.4 19.6 20.6Z"/>
  </defs>
  <g filter="url(#drop)">
    <use xlink:href="#s0" fill="url(#body)" stroke="url(#edge)" stroke-width="0.8" stroke-linejoin="round"/>
    <use xlink:href="#s0" fill="url(#sheen)"/>
    <use xlink:href="#s1" fill="url(#body)" stroke="url(#edge)" stroke-width="0.85" stroke-linejoin="round"/>
    <use xlink:href="#s1" fill="url(#sheen)"/>
    <use xlink:href="#s2" fill="url(#body)" stroke="url(#edge)" stroke-width="0.85" stroke-linejoin="round"/>
    <use xlink:href="#s2" fill="url(#sheen)"/>
  </g>
</svg>
